<svg width="64" height="64" viewBox="0 0 64 64" fill="none" xmlns="http://www.w3.org/2000/svg">
  <g>
    <path d="M0 0H64V64H0V0Z" fill="#44475A"/>
    <path d="M18.0068 48.7413C17.938 49.4093 18.4005 49.9929 19.0005 49.9929L21.0192 49.9999C21.5254 49.9999 21.9504 49.5851 22.0191 49.0226C22.0629 48.678 22.1316 48.2421 22.2316 47.7499H41.7496C41.8496 48.2351 41.9309 48.678 41.9684 49.0226C42.0371 49.5851 42.4621 50.0069 42.9683 49.9999L44.987 49.9929C45.587 49.9929 46.0557 49.4093 45.9807 48.7413C45.6932 46.0765 44.3808 39.6711 38.5498 34.1375C37.4498 35.0094 36.2311 35.839 34.8936 36.6265C35.2811 36.95 35.6061 37.2875 35.9561 37.625H27.9814C29.3126 36.3523 30.9188 35.1219 32.9 34.0109C43.6558 27.9992 45.6307 18.6266 45.9932 15.2587C46.062 14.5907 45.5995 14.0071 44.9995 14.0071L42.9746 14.0001C42.4684 14.0001 42.0434 14.4149 41.9746 14.9774C41.9309 15.322 41.8621 15.7579 41.7621 16.2501H22.2379C22.1379 15.7579 22.0691 15.329 22.0254 14.9774C21.9566 14.4149 21.5316 13.9931 21.0254 14.0001L19.0067 14.0071C18.4068 14.0071 17.938 14.5907 18.0068 15.2587C18.3318 18.2751 19.963 26.0797 28.0002 32C19.9692 37.9203 18.3318 45.7249 18.0068 48.7413ZM32 29.4406C30.4313 28.4774 29.1001 27.4438 27.9814 26.375H36.0123C34.8999 27.4438 33.5687 28.4844 32 29.4406ZM40.1934 20.7501C39.831 21.4813 39.3935 22.2336 38.881 23H25.1253C24.6065 22.2336 24.169 21.4813 23.8128 20.7501H40.1934ZM23.8066 43.2499C24.169 42.5187 24.6065 41.7664 25.119 41H38.831C39.3497 41.7664 39.7935 42.5187 40.1559 43.2499H23.8066Z" fill="#F8F8F2"/>
    <path d="M19.0005 49.9929C18.4005 49.9929 17.938 49.4093 18.0068 48.7413C18.3318 45.7249 19.9692 37.9203 28.0002 32L32 29.4406C33.5687 28.4844 34.8999 27.4438 36.0123 26.375L38.881 23C39.3935 22.2336 39.831 21.4813 40.1934 20.7501L41.7621 16.2501C41.8621 15.7579 41.9309 15.322 41.9746 14.9774C42.0434 14.4149 42.4684 14.0001 42.9746 14.0001L44.9995 14.0071C45.5995 14.0071 46.062 14.5907 45.9932 15.2587C45.6307 18.6266 43.6558 27.9992 32.9 34.0109C30.9188 35.1219 29.3126 36.3523 27.9814 37.625L25.119 41C24.6065 41.7664 24.169 42.5187 23.8066 43.2499L22.2316 47.7499C22.1316 48.2421 22.0629 48.678 22.0191 49.0226C21.9504 49.5851 21.5254 49.9999 21.0192 49.9999L19.0005 49.9929Z" fill="#6272A4"/>
  </g>
</svg>
